# xmcd
#
# Track frame offsets:
#	150
#	24515
#	56457
#	82623
#	135284
#	162492
#	183290
#	206275
#	227650
#	286931
#	308911
#
# Disc length: 4319 seconds
#
# Revision: 0
# Processed by: cddbd v1.4PL0 Copyright (c) Steve Scherf et al.
# Submitted via: EasyCDDAExtractor 4.6.9.1
#
DISCID=7f10dd0b
DTITLE=Johnny Winter - Lone Star Shootout
DYEAR=2001
DGENRE=Blues/Rock
TTITLE0=EZ Rider
TTITLE1=Help Me
TTITLE2=Bony Moronie
TTITLE3=Mother Earth
TTITLE4=Busted In Austin
TTITLE5=Messin' With The Kid
TTITLE6=Jumping Jack Flash
TTITLE7=Black Cat Bone
TTITLE8=Big Boss Man
TTITLE9=Spoonful
TTITLE10=Low Down Gal of Mine
EXTD=Several performances in Houston and Austin prior to advent of modern record
EXTD=ing equipment. Sound quality may not be equal to modern standards.
EXTT0=Taj Mahal
EXTT1=R. Bass/B. Williamson
EXTT2=Larry Williams
EXTT3=P. Chatman/L. Simpkins
EXTT4=J. Winter
EXTT5=Mel London
EXTT6=M. Jagger/K. Richards
EXTT7=J. Winter
EXTT8=A. Smith/L. Dixon
EXTT9=Willie Dixon
EXTT10=J. Winter
PLAYORDER=
